<?xml version="1.0" standalone="no"?>
<!DOCTYPE svg PUBLIC "-//W3C//DTD SVG 20010904//EN"
 "http://www.w3.org/TR/2001/REC-SVG-20010904/DTD/svg10.dtd">
<svg version="1.0" xmlns="http://www.w3.org/2000/svg"
 width="1024.000000pt" height="1024.000000pt" viewBox="0 0 1024.000000 1024.000000"
 preserveAspectRatio="xMidYMid meet">

<g transform="translate(0.000000,1024.000000) scale(0.100000,-0.100000)"
fill="#000000" stroke="none">
<path d="M6745 8096 c-104 -35 -377 -128 -605 -206 -228 -78 -606 -206 -840
-285 -465 -156 -862 -292 -1710 -585 -305 -105 -665 -229 -800 -275 -797 -271
-956 -327 -987 -346 -75 -46 -129 -164 -119 -257 19 -179 19 -178 -3 -250 -34
-112 -103 -192 -214 -247 -73 -36 -107 -80 -107 -137 0 -21 20 -93 44 -161 24
-67 56 -159 71 -205 46 -143 97 -178 212 -147 161 44 320 -30 395 -184 32 -65
31 -185 -1 -258 -31 -70 -104 -137 -169 -156 -28 -9 -60 -21 -72 -27 -31 -17
-50 -69 -41 -111 18 -73 145 -435 163 -461 10 -14 39 -34 64 -44 43 -16 48
-16 101 0 132 42 251 9 347 -95 174 -187 101 -454 -141 -518 -24 -7 -52 -21
-63 -33 -41 -44 -37 -71 45 -320 43 -128 83 -241 89 -250 40 -58 103 -79 192
-67 117 17 246 -28 346 -120 56 -51 72 -77 139 -230 42 -95 143 -161 245 -161
48 0 78 9 449 138 143 49 400 138 570 197 171 58 479 165 685 237 206 71 510
176 675 233 165 57 498 172 740 255 438 152 827 285 1530 525 204 69 397 136
430 148 82 29 165 110 190 186 14 44 16 67 9 120 -5 36 -8 107 -8 156 -1 81 3
97 32 156 36 74 123 164 197 202 23 12 56 37 71 56 47 56 41 100 -51 355 -85
236 -110 280 -169 291 -21 4 -50 -1 -84 -14 -151 -60 -316 16 -390 177 -51
111 -25 265 58 351 22 22 71 56 110 76 72 36 110 78 110 120 0 25 -147 453
-165 481 -7 12 -30 29 -51 39 -35 17 -39 17 -95 0 -229 -70 -463 150 -418 393
20 106 70 171 176 227 69 36 107 86 100 130 -3 17 -37 122 -77 235 -54 157
-78 212 -101 236 -43 44 -86 55 -165 42 -127 -21 -268 26 -356 119 -26 29 -64
87 -87 135 -62 131 -154 198 -270 198 -20 0 -121 -29 -226 -64z m170 -431 c80
-136 184 -234 320 -300 85 -41 203 -75 259 -75 15 0 26 -2 26 -4 0 -3 -29 -46
-65 -96 -98 -139 -135 -257 -135 -435 0 -110 22 -210 65 -295 39 -77 138 -201
201 -252 81 -66 214 -132 310 -154 43 -10 81 -19 83 -21 3 -2 -13 -22 -35 -46
-85 -90 -132 -173 -165 -293 -31 -112 -24 -306 13 -412 51 -142 151 -279 266
-364 102 -75 253 -138 334 -138 15 0 28 -3 28 -6 0 -3 -30 -39 -67 -79 -156
-167 -212 -338 -183 -555 9 -71 10 -107 3 -119 -5 -9 -45 -28 -87 -43 l-76
-27 -14 22 c-7 12 -50 123 -94 247 -45 124 -118 326 -163 450 -44 124 -136
383 -204 575 -68 193 -174 490 -235 660 -62 171 -134 373 -162 450 -67 191
-125 351 -218 605 -44 118 -116 318 -160 444 -77 217 -80 229 -65 252 8 13 16
24 18 24 1 0 34 11 72 25 39 13 75 24 81 24 6 1 28 -28 49 -64z m-782 -569
c79 -29 86 -41 202 -361 47 -132 128 -355 180 -495 51 -140 132 -361 178 -490
47 -129 119 -327 160 -440 41 -113 125 -347 187 -520 62 -173 137 -382 167
-465 48 -130 54 -157 49 -199 -7 -63 -40 -99 -115 -125 -131 -46 -884 -302
-1221 -416 -201 -68 -432 -146 -515 -175 -219 -76 -891 -305 -1030 -352 -94
-31 -130 -39 -168 -35 -88 8 -83 -2 -277 547 -114 320 -285 795 -375 1040 -29
80 -97 269 -150 420 -82 232 -199 557 -301 840 -13 36 -24 81 -24 100 0 43 27
98 60 122 14 10 117 50 230 89 113 39 309 106 435 150 127 44 381 132 565 195
184 64 430 149 545 189 116 41 350 122 520 180 171 58 380 130 465 160 85 30
164 54 175 54 11 0 37 -6 58 -13z m-3784 -963 c46 -129 242 -677 461 -1293 33
-91 96 -266 140 -390 45 -124 108 -301 141 -395 34 -93 160 -449 281 -790 288
-812 274 -769 262 -802 -8 -24 -22 -32 -89 -55 -113 -37 -117 -37 -137 20 -47
129 -173 281 -292 351 -83 50 -209 92 -293 98 -40 3 -73 8 -73 10 0 2 14 16
30 30 38 31 109 130 143 200 70 138 90 345 47 499 -62 226 -226 408 -455 503
-41 18 -100 37 -129 43 l-53 10 46 62 c98 129 145 273 145 441 0 129 -13 191
-64 300 -95 205 -261 344 -495 414 l-71 22 47 48 c157 163 226 356 200 558 -7
52 -10 98 -6 101 9 10 158 70 176 71 11 1 23 -17 38 -56z"/>
<path d="M5340 6561 c-8 -5 -114 -43 -235 -84 -121 -42 -350 -121 -510 -177
-159 -56 -391 -137 -515 -179 -333 -116 -340 -119 -367 -166 -52 -91 -3 -195
98 -211 37 -6 25 -10 834 276 253 89 536 189 629 222 94 32 182 66 197 75 30
18 54 55 63 98 9 43 -29 113 -74 137 -37 19 -95 23 -120 9z"/>
<path d="M5290 6028 c-124 -44 -461 -162 -750 -263 -653 -227 -638 -221 -668
-265 -34 -50 -28 -128 13 -170 52 -54 85 -57 200 -17 201 70 1116 390 1314
459 112 40 218 81 235 93 75 50 82 141 16 208 -56 56 -88 52 -360 -45z"/>
<path d="M6100 5531 c-30 -10 -134 -47 -230 -81 -96 -34 -314 -110 -485 -170
-170 -59 -413 -145 -540 -190 -126 -45 -329 -115 -450 -156 -272 -93 -281 -97
-305 -145 -50 -98 11 -216 109 -212 20 1 185 54 366 118 368 130 872 307 1040
365 61 21 227 79 369 129 275 96 305 112 326 177 22 67 -24 148 -99 173 -41
13 -34 14 -101 -8z"/>
<path d="M5715 4851 c-330 -115 -757 -263 -950 -330 -476 -165 -466 -161 -492
-200 -59 -88 6 -217 107 -215 45 2 55 5 500 161 195 69 598 210 895 313 297
104 560 196 585 205 117 42 152 161 71 239 -58 56 -55 57 -716 -173z"/>
<path d="M5985 4206 c-308 -106 -654 -225 -770 -265 -115 -40 -302 -104 -415
-143 -231 -80 -271 -97 -292 -130 -54 -83 -3 -199 95 -215 35 -5 75 7 372 112
105 37 268 93 363 126 96 32 237 81 315 108 78 28 207 72 287 100 367 126 639
220 678 236 48 19 92 82 92 129 0 38 -25 87 -57 110 -57 42 -71 38 -668 -168z"/>
</g>
</svg>
