<?xml version="1.0" standalone="no"?>
<!DOCTYPE svg PUBLIC "-//W3C//DTD SVG 20010904//EN"
 "http://www.w3.org/TR/2001/REC-SVG-20010904/DTD/svg10.dtd">
<svg version="1.0" xmlns="http://www.w3.org/2000/svg"
 width="1080.000000pt" height="1080.000000pt" viewBox="0 0 1080.000000 1080.000000"
 preserveAspectRatio="xMidYMid meet">

<g transform="translate(0.000000,1080.000000) scale(0.100000,-0.100000)"
fill="#000000" stroke="none">
<path d="M4910 7990 c-164 -10 -428 -53 -530 -86 -168 -56 -231 -143 -180
-248 35 -74 67 -88 300 -137 80 -17 190 -41 245 -55 120 -30 427 -123 438
-134 5 -4 -34 -12 -85 -19 -51 -6 -181 -29 -289 -51 -481 -97 -856 -255 -1276
-538 -290 -195 -527 -420 -874 -827 -144 -169 -537 -662 -553 -694 -21 -39
-20 -106 1 -141 9 -15 35 -39 57 -52 39 -22 51 -23 206 -23 157 1 172 2 317
39 l152 38 46 -38 c52 -42 52 -41 -2 -153 -25 -51 -58 -98 -110 -152 -96 -101
-139 -133 -416 -319 -257 -172 -289 -203 -291 -284 -4 -196 489 -387 869 -337
444 59 792 297 1030 706 10 17 18 16 120 -18 194 -64 430 -118 680 -154 95
-14 188 -18 445 -18 363 0 444 8 689 71 74 19 136 32 139 29 7 -6 -36 -99 -96
-210 -81 -149 -252 -387 -381 -529 -35 -39 -213 -222 -396 -407 -357 -360
-395 -407 -395 -489 0 -48 25 -99 63 -131 89 -75 385 -64 697 26 251 72 471
178 730 350 686 456 1185 1096 1296 1662 24 117 24 333 1 425 -9 37 -29 96
-43 130 -15 35 -33 78 -41 96 l-13 32 97 46 c54 25 170 85 258 133 142 79 169
90 240 101 179 27 354 97 476 189 80 61 193 179 238 249 19 28 38 52 42 52 4
0 22 -16 40 -35 19 -19 36 -35 40 -35 9 0 62 128 85 205 13 43 18 92 18 170
-1 93 -5 122 -28 190 -67 195 -173 319 -351 409 -101 51 -172 66 -302 67 -152
0 -240 -23 -428 -111 -140 -65 -253 -107 -337 -124 -79 -16 -209 -20 -242 -7
-13 5 -25 32 -41 97 -81 319 -357 606 -745 775 -466 202 -1062 302 -1610 269z
m374 -199 c3 -5 -25 -16 -62 -25 -84 -21 -161 -56 -223 -101 -27 -19 -55 -35
-61 -35 -23 0 -343 83 -352 91 -5 5 3 13 19 19 28 11 235 46 310 53 85 8 364
7 369 -2z m361 -36 c376 -46 846 -213 1070 -380 91 -68 193 -172 240 -245 51
-78 88 -150 82 -157 -3 -2 -51 18 -106 46 -282 141 -523 225 -791 276 -104 19
-335 45 -411 45 -63 0 -96 20 -62 38 35 19 137 32 250 32 100 0 115 2 133 20
48 48 1 123 -84 135 -26 4 -111 5 -189 2 -160 -5 -258 -29 -299 -72 -12 -14
-33 -25 -45 -25 -19 0 -210 66 -222 76 -8 7 34 33 79 49 25 9 87 22 139 30
108 17 135 33 128 80 -2 16 -8 38 -12 49 -7 16 -4 18 21 13 16 -4 52 -9 79
-12z m175 -615 c132 -11 248 -29 270 -40 12 -7 8 -11 -15 -20 -101 -39 -415
-86 -500 -76 -62 7 -247 54 -258 65 -12 12 40 69 66 74 44 9 325 7 437 -3z
m-741 -56 c-59 -44 -188 -101 -345 -152 -135 -44 -163 -50 -277 -57 l-127 -7
0 26 c0 16 9 31 23 40 36 23 361 113 507 140 170 32 178 33 219 35 l35 1 -35
-26z m1377 -68 c110 -37 274 -103 287 -116 10 -9 -10 -53 -22 -46 -4 3 -59 12
-123 20 -107 14 -124 19 -212 66 -53 29 -96 55 -96 58 0 4 15 17 33 29 17 12
32 22 33 22 0 1 45 -14 100 -33z m-1242 -95 c3 -5 56 -21 118 -36 62 -15 116
-30 120 -34 3 -3 -21 -46 -55 -95 -62 -89 -62 -89 -137 -116 -84 -30 -172 -73
-273 -133 l-68 -40 -69 17 c-37 9 -110 19 -160 23 -58 4 -94 11 -97 18 -7 20
57 174 76 185 10 5 81 30 157 55 77 26 191 73 254 105 126 64 126 64 134 51z
m1002 -88 l112 -69 -56 -67 -56 -67 -81 0 c-54 0 -114 -8 -182 -26 l-102 -26
-88 31 c-48 16 -114 37 -146 46 l-58 16 20 27 c10 15 37 48 60 73 39 45 43 47
123 59 110 15 251 47 291 64 18 8 37 13 42 11 6 -1 60 -34 121 -72z m2227 47
c79 -24 172 -85 227 -147 77 -88 136 -238 128 -330 -2 -32 -6 -37 -23 -35 -11
2 -70 6 -130 9 -107 5 -113 4 -200 -29 -50 -18 -123 -55 -164 -82 -104 -68
-155 -89 -237 -94 -80 -5 -125 6 -193 49 -55 35 -84 36 -116 4 -32 -31 -33
-81 -2 -123 72 -98 208 -143 364 -121 95 13 153 36 260 105 46 29 95 60 111
68 32 16 132 37 132 27 0 -20 -117 -144 -176 -189 -140 -105 -279 -155 -434
-155 -152 -1 -260 48 -374 169 -53 56 -65 64 -97 64 -71 0 -101 -82 -60 -163
26 -50 96 -134 147 -177 24 -19 43 -37 43 -41 1 -3 -71 -41 -160 -84 -158 -78
-161 -79 -187 -63 -15 10 -53 31 -85 48 -32 17 -60 37 -63 44 -3 8 23 57 57
111 137 214 218 482 235 781 l7 112 87 11 c111 14 224 53 407 140 199 93 246
108 359 110 47 1 95 -6 137 -19z m-1319 -145 l121 -53 3 -41 c2 -26 -1 -41 -8
-41 -14 0 -257 124 -283 144 -13 10 -17 21 -12 36 9 28 23 24 179 -45z m-3095
41 c-20 -16 -221 -127 -225 -124 -6 7 30 30 136 89 46 27 86 46 89 43 2 -2 2
-6 0 -8z m401 -84 c0 -4 -14 -48 -32 -98 l-32 -90 -95 -53 c-53 -29 -136 -79
-186 -111 l-90 -58 -147 7 -146 6 22 55 22 55 160 94 c87 51 198 119 246 150
l87 56 95 -3 c53 -2 96 -6 96 -10z m2285 -8 c32 -4 54 -19 112 -73 l72 -67
-23 -116 c-26 -127 -49 -178 -81 -178 -35 0 -126 69 -225 170 -52 54 -111 105
-130 115 -19 10 -37 19 -39 21 -2 2 23 35 55 73 l59 71 80 -6 c44 -3 98 -7
120 -10z m-3189 -315 l-51 -131 -105 -82 c-58 -44 -166 -134 -240 -199 l-135
-118 -12 33 c-23 65 -17 81 60 169 41 46 112 120 158 164 97 92 347 295 365
295 7 0 -9 -52 -40 -131z m2064 101 c47 -12 89 -25 94 -30 4 -4 3 -48 -4 -97
-44 -333 147 -636 413 -651 105 -6 167 32 167 104 0 46 -35 70 -113 79 -111
13 -176 61 -228 169 -38 80 -52 155 -47 245 4 61 9 78 27 92 24 20 219 69 273
69 62 0 151 -54 225 -137 87 -97 181 -175 260 -216 35 -17 63 -35 63 -38 0
-12 -77 -110 -148 -188 -126 -139 -357 -325 -537 -433 -299 -179 -656 -301
-1065 -365 -90 -14 -176 -18 -395 -18 -293 0 -413 12 -586 55 -189 48 -512
180 -525 214 -4 10 6 30 25 51 41 47 41 86 2 126 -52 51 -128 32 -166 -42 -9
-16 -21 -29 -28 -29 -14 0 -181 161 -205 198 -14 21 -13 25 14 54 39 41 368
320 457 387 l72 54 110 -7 c60 -4 112 -9 114 -12 2 -2 -17 -48 -42 -102 -59
-123 -79 -204 -80 -317 -1 -144 37 -248 126 -342 59 -63 125 -97 225 -118 117
-25 182 4 182 80 0 53 -54 95 -123 95 -78 1 -161 70 -192 159 -20 58 -19 186
1 265 24 94 81 193 159 275 82 86 152 136 273 194 80 38 93 42 157 40 84 -3
233 -27 245 -39 4 -5 -7 -47 -27 -93 -87 -209 -96 -477 -22 -653 80 -189 222
-307 357 -296 45 4 60 10 79 32 26 31 30 72 8 102 -7 12 -41 31 -75 43 -77 28
-119 65 -158 139 -48 90 -65 177 -59 302 15 320 191 530 512 611 39 9 77 16
85 14 8 -2 53 -13 100 -25z m1573 -36 c80 -40 77 -33 55 -137 -46 -211 -179
-488 -262 -543 -24 -15 -28 -14 -80 16 -31 17 -58 35 -60 39 -3 4 17 44 45 87
102 159 182 344 208 479 20 101 16 98 94 59z m-4340 -729 c9 -20 17 -40 17
-45 0 -4 -30 -29 -66 -55 -69 -48 -92 -49 -81 -3 7 25 93 138 105 138 5 0 16
-16 25 -35z m3893 -78 c77 -53 77 -58 9 -128 -90 -92 -298 -263 -360 -295
l-54 -29 -31 30 c-38 37 -59 97 -40 120 7 8 47 39 89 69 42 29 130 101 196
159 66 59 125 106 131 107 7 0 33 -15 60 -33z m-3616 -311 c0 -21 -82 -116
-100 -116 -17 0 -161 147 -184 188 -10 17 22 49 84 82 l35 19 83 -82 c45 -45
82 -86 82 -91z m4025 76 c97 -65 165 -161 216 -302 21 -58 24 -82 23 -215 0
-124 -4 -165 -23 -235 -148 -550 -646 -1136 -1316 -1548 -129 -79 -344 -182
-463 -221 -194 -65 -429 -92 -466 -55 -9 8 -16 21 -16 27 0 23 38 74 83 111
39 32 48 35 71 26 103 -39 373 38 573 162 159 99 185 142 125 210 -41 45 -75
42 -160 -15 -119 -78 -312 -167 -365 -167 -17 0 -4 18 69 93 211 216 405 446
533 632 19 28 36 52 37 54 2 1 29 -10 61 -25 131 -65 303 -18 303 81 0 22 -8
43 -21 56 -19 19 -28 20 -90 14 -79 -8 -119 3 -139 39 -10 20 -7 33 28 102 39
78 98 245 125 354 l14 55 66 -3 c88 -3 183 20 271 66 116 61 236 197 236 269
0 47 -37 83 -86 83 -34 0 -46 -8 -120 -84 -99 -102 -167 -139 -254 -140 -33 0
-64 4 -71 11 -7 7 -9 32 -4 77 l7 67 57 28 c115 59 304 213 447 364 l98 105
55 -24 c31 -14 74 -37 96 -52z m-4527 -74 c44 -58 59 -84 50 -89 -32 -17 -273
-53 -289 -43 -5 3 20 38 55 79 35 40 72 87 82 104 10 17 23 31 29 31 5 -1 38
-37 73 -82z m753 -163 c31 -20 102 -56 156 -81 158 -72 148 -65 146 -112 -2
-49 -15 -77 -49 -98 -24 -16 -28 -15 -132 35 -193 94 -272 152 -272 197 0 27
55 94 77 94 9 0 42 -16 74 -35z m2728 -7 c39 -53 40 -89 4 -118 -79 -63 -461
-220 -534 -220 -35 0 -59 39 -61 105 -3 61 15 76 137 114 55 17 161 59 235 95
74 35 147 64 162 65 20 1 34 -9 57 -41z m-2074 -242 c66 -14 176 -30 245 -36
174 -16 170 -14 170 -100 0 -64 -2 -71 -26 -86 -22 -15 -36 -16 -127 -5 -222
27 -404 70 -434 103 -15 17 -15 25 -4 66 11 43 35 82 50 82 3 0 60 -11 126
-24z m1265 -18 c25 -42 26 -109 3 -131 -10 -8 -36 -20 -59 -26 -77 -20 -299
-51 -420 -57 -115 -7 -122 -6 -143 15 -17 17 -21 33 -21 80 0 77 17 91 110 91
78 0 302 26 385 44 101 23 122 21 145 -16z m-2113 -63 c23 -14 43 -29 43 -33
0 -14 -38 -68 -88 -127 -55 -64 -63 -94 -37 -132 22 -32 66 -38 117 -15 40 18
127 100 173 164 l20 27 193 -71 c105 -39 192 -76 192 -82 0 -27 -167 -231
-243 -297 -152 -133 -280 -202 -466 -250 -109 -29 -318 -36 -438 -15 -100 17
-216 57 -246 83 -26 24 -19 71 14 96 l27 19 108 -38 109 -38 160 0 c179 1 251
15 397 78 123 53 184 94 280 187 83 81 88 88 88 128 0 31 -6 48 -25 66 -41 42
-72 34 -155 -41 -120 -108 -222 -164 -300 -164 -25 0 -62 11 -98 31 -52 27
-61 29 -86 18 -34 -16 -58 -61 -50 -93 5 -22 2 -25 -32 -32 -40 -7 -183 11
-197 25 -5 5 32 37 85 72 168 115 310 266 369 394 17 36 33 65 37 65 3 0 25
-11 49 -25z m2979 -67 c-18 -113 -17 -112 -113 -141 -262 -79 -444 -108 -713
-114 -118 -3 -212 -3 -209 1 3 3 79 17 168 31 90 14 191 32 225 41 156 40 363
109 491 164 77 32 144 59 149 60 5 0 6 -19 2 -42z"/>
<path d="M6243 7468 c-44 -21 -41 -78 5 -102 49 -25 91 -29 117 -12 31 21 32
56 3 83 -47 43 -83 51 -125 31z"/>
<path d="M6546 7328 c-21 -30 -20 -44 4 -68 22 -22 69 -27 88 -8 18 18 14 63
-6 81 -26 24 -68 21 -86 -5z"/>
<path d="M8252 6739 c-55 -11 -187 -81 -187 -99 0 -8 16 -17 38 -22 54 -11 93
-34 150 -87 48 -44 51 -46 111 -46 71 0 152 34 168 71 14 31 -28 104 -83 144
-33 24 -121 53 -147 49 -4 -1 -27 -5 -50 -10z"/>
<path d="M7661 6551 c-24 -24 -63 -144 -54 -169 19 -55 74 -69 112 -28 25 27
51 103 51 151 0 59 -68 87 -109 46z"/>
<path d="M7898 6490 c-33 -34 -33 -63 1 -109 35 -50 68 -65 144 -69 62 -3 76
-1 100 18 19 16 27 30 27 54 0 40 -22 62 -75 74 -22 5 -62 21 -90 35 -63 34
-70 34 -107 -3z"/>
<path d="M5703 5585 c-29 -20 -37 -59 -19 -94 26 -49 82 -56 115 -15 29 37 27
78 -5 103 -31 25 -61 27 -91 6z"/>
<path d="M5390 5460 c-28 -28 -26 -81 3 -108 31 -29 72 -28 102 3 30 30 32 64
4 99 -26 33 -79 36 -109 6z"/>
<path d="M4480 5313 c-59 -76 47 -167 115 -98 51 50 18 125 -55 125 -30 0 -43
-6 -60 -27z"/>
<path d="M7009 5219 c-28 -28 -23 -59 33 -182 54 -120 68 -137 113 -137 76 0
83 81 19 209 -37 73 -91 131 -124 131 -11 0 -30 -10 -41 -21z"/>
<path d="M7091 4734 c-43 -54 -10 -124 58 -124 48 0 71 24 71 73 0 74 -85 107
-129 51z"/>
<path d="M6815 4648 c-11 -6 -54 -46 -95 -88 -84 -86 -145 -120 -256 -145 -78
-18 -110 -41 -120 -91 -8 -40 25 -80 77 -94 91 -25 285 54 390 159 125 125
149 194 88 245 -33 28 -53 32 -84 14z"/>
<path d="M7022 4453 c-18 -7 -72 -121 -72 -150 0 -45 54 -68 101 -42 25 13 69
103 69 140 0 45 -50 71 -98 52z"/>
<path d="M6719 4165 c-14 -7 -42 -39 -63 -70 -47 -71 -182 -213 -258 -271
-119 -92 -267 -153 -370 -154 -49 0 -87 -33 -95 -82 -5 -32 -1 -41 25 -68 29
-28 35 -30 106 -30 250 0 572 220 748 511 46 76 48 110 9 150 -32 32 -62 36
-102 14z"/>
</g>
</svg>
