<?xml version="1.0" standalone="no"?>
<!DOCTYPE svg PUBLIC "-//W3C//DTD SVG 20010904//EN"
 "http://www.w3.org/TR/2001/REC-SVG-20010904/DTD/svg10.dtd">
<svg version="1.0" xmlns="http://www.w3.org/2000/svg"
 width="1024.000000pt" height="1024.000000pt" viewBox="0 0 1024.000000 1024.000000"
 preserveAspectRatio="xMidYMid meet">

<g transform="translate(0.000000,1024.000000) scale(0.100000,-0.100000)"
fill="#000000" stroke="none">
<path d="M2565 7281 c-44 -26 -83 -77 -89 -114 -3 -18 -8 -63 -12 -101 -19
-211 -170 -406 -365 -470 -65 -22 -97 -26 -191 -26 -88 0 -122 -5 -153 -19
-51 -23 -101 -80 -114 -128 -6 -24 -9 -501 -8 -1323 l2 -1285 22 -40 c47 -88
100 -115 225 -115 124 0 215 -21 303 -69 40 -22 77 -36 81 -33 4 4 5 2 1 -4
-3 -5 8 -23 25 -40 17 -16 48 -50 69 -76 20 -26 39 -45 41 -43 2 2 4 -4 5 -13
1 -9 13 -50 28 -91 16 -44 29 -109 34 -165 9 -109 30 -158 84 -197 l40 -29
2523 0 2522 0 44 33 c52 39 77 102 78 192 0 129 58 267 147 359 119 122 221
165 413 173 165 7 214 32 256 128 17 37 18 127 20 1320 1 840 -2 1292 -8 1315
-15 51 -53 97 -101 122 -34 18 -67 23 -177 29 -97 5 -151 13 -194 28 -32 11
-63 18 -69 14 -5 -3 -7 -1 -4 4 8 12 -20 26 -34 17 -5 -3 -8 -2 -7 3 2 4 -29
40 -67 78 -115 114 -160 212 -175 374 -7 80 -13 100 -38 135 -16 23 -36 40
-45 40 -9 -1 -15 2 -12 6 18 29 -102 30 -2564 30 -2423 0 -2507 -1 -2536 -19z
m1982 3 c-3 -3 -12 -4 -19 -1 -8 3 -5 6 6 6 11 1 17 -2 13 -5z m-1320 -557
c11 -9 22 -15 25 -12 9 9 10 -20 17 -367 l6 -348 25 -25 c23 -23 35 -26 117
-28 61 -3 98 -8 109 -18 31 -26 44 -75 44 -173 0 -87 -2 -97 -26 -125 -25 -30
-28 -31 -109 -31 -164 0 -165 -2 -165 -340 0 -339 0 -340 150 -340 80 0 83 -1
117 -35 33 -33 35 -39 29 -82 -3 -25 -6 -79 -6 -120 0 -65 -3 -77 -25 -98 -21
-22 -33 -25 -100 -25 -83 0 -137 -17 -154 -48 -7 -14 -11 -178 -11 -500 0
-280 -3 -490 -9 -504 -20 -54 -55 -68 -161 -68 -66 0 -101 4 -107 13 -6 6 -27
50 -48 97 -131 297 -371 505 -668 579 -92 23 -111 33 -126 68 -8 21 -11 266
-9 931 l3 904 26 22 c16 14 63 32 115 45 291 73 514 261 654 551 53 112 37
102 160 98 86 -2 112 -7 127 -21z m2386 13 l709 0 39 -39 39 -39 0 -1563 c0
-1221 -3 -1569 -13 -1588 -6 -13 -25 -34 -40 -45 l-28 -21 -1209 0 -1209 0
-31 30 c-17 16 -35 45 -41 65 -7 23 -9 544 -7 1570 l3 1535 23 37 c12 20 30
40 40 45 20 9 646 22 866 16 82 -1 468 -3 859 -3z m1666 -87 c81 -161 185
-292 312 -393 71 -56 224 -128 329 -154 124 -32 128 -34 145 -67 13 -24 15
-158 15 -928 l0 -899 -25 -30 c-18 -21 -41 -34 -78 -42 -208 -47 -360 -130
-482 -262 -115 -125 -180 -224 -230 -351 -15 -37 -36 -72 -47 -78 -33 -18
-202 -7 -225 14 -11 9 -22 15 -25 12 -10 -10 -11 26 -17 528 l-6 509 -28 24
c-25 21 -38 24 -113 24 -47 0 -94 5 -106 11 -38 20 -48 68 -41 186 6 100 8
110 34 135 26 26 33 28 117 28 73 0 94 3 113 19 l24 19 3 290 3 290 -25 28
c-23 28 -28 29 -122 31 -90 2 -100 5 -124 28 -23 24 -25 33 -27 128 -3 163 24
197 164 197 85 1 106 10 123 54 6 17 10 148 10 339 0 409 -1 407 182 407 l98
0 49 -97z"/>
<path d="M2689 5897 c-27 -15 -52 -38 -66 -63 l-23 -39 0 -675 c0 -636 2 -677
19 -716 35 -77 117 -117 194 -94 23 7 54 21 70 32 60 43 58 16 60 761 2 602 0
685 -14 712 -8 17 -20 29 -26 28 -6 -1 -10 5 -9 14 2 22 -79 63 -124 63 -20 0
-57 -10 -81 -23z"/>
<path d="M4951 5919 c-66 -13 -139 -38 -206 -72 -121 -60 -254 -165 -240 -188
5 -8 4 -10 -3 -5 -30 19 -170 -216 -207 -349 -24 -85 -30 -309 -9 -395 28
-122 79 -244 97 -233 6 3 7 1 3 -5 -16 -26 98 -168 198 -248 149 -119 305
-179 490 -190 294 -17 594 139 751 390 56 91 86 168 110 286 24 117 17 315
-15 415 -75 238 -255 442 -477 540 -124 56 -355 81 -492 54z m363 -417 c58
-29 97 -57 132 -94 59 -64 95 -108 90 -108 -2 0 7 -30 20 -67 36 -102 29 -233
-18 -339 -87 -202 -337 -318 -557 -259 -30 8 -59 11 -64 8 -6 -3 -7 -2 -4 3 3
6 -16 22 -43 37 -96 54 -194 186 -219 297 -34 149 16 318 128 429 104 103 209
143 359 137 85 -3 100 -7 176 -44z"/>
<path d="M7384 5899 c-23 -11 -49 -28 -59 -39 -43 -48 -44 -62 -45 -755 l0
-661 23 -44 c26 -52 59 -78 113 -90 77 -18 160 26 195 105 17 37 19 81 19 700
0 622 -2 662 -19 701 -20 44 -56 74 -110 92 -48 17 -70 15 -117 -9z"/>
</g>
</svg>
